<svg width="58" height="58" viewBox="0 0 58 58" fill="none" xmlns="http://www.w3.org/2000/svg">
<path d="M48.0813 12.7625C48.2938 13.0125 48.5 13.275 48.7063 13.5312C48.9375 13.825 48.4313 13.1687 48.6563 13.4688C48.6938 13.5188 48.7375 13.575 48.775 13.625C48.875 13.7562 48.975 13.8937 49.0688 14.025C49.4688 14.575 49.8438 15.1438 50.2 15.725C50.9063 16.875 51.525 18.0812 52.05 19.3312C51.9875 19.1812 51.925 19.0313 51.8625 18.8813C52.7875 21.0813 53.4125 23.3937 53.7313 25.7625C53.7063 25.5937 53.6875 25.4312 53.6625 25.2625C53.975 27.6562 53.975 30.0875 53.6563 32.4813C53.6813 32.3125 53.7 32.15 53.725 31.9812C53.4063 34.325 52.7813 36.6125 51.8688 38.7938C51.9313 38.6438 51.9938 38.4938 52.0563 38.3438C51.525 39.6 50.9 40.8125 50.1875 41.975C49.8375 42.5438 49.4625 43.1063 49.075 43.65C48.9813 43.7813 48.8813 43.9125 48.7813 44.0438C48.7313 44.1063 48.6813 44.175 48.6313 44.2375C48.4313 44.5063 48.9313 43.8563 48.725 44.1188C48.5063 44.4 48.2813 44.675 48.05 44.9438C47.1875 45.9625 46.2438 46.9188 45.2375 47.7938C45.0125 47.9938 44.7813 48.1875 44.55 48.375C44.425 48.4813 44.2938 48.5813 44.1688 48.6813C44.0625 48.7688 43.7938 48.9625 44.2875 48.5875C44.2 48.6563 44.1125 48.7188 44.025 48.7875C43.475 49.2 42.9125 49.5875 42.3375 49.9563C41.0625 50.7688 39.7188 51.475 38.3188 52.0625C38.4688 52 38.6188 51.9375 38.7688 51.875C36.5875 52.7875 34.3 53.4125 31.9563 53.7313C32.125 53.7063 32.2875 53.6875 32.4563 53.6625C30.0375 53.9875 27.5875 53.9875 25.1688 53.6625C25.3375 53.6875 25.5 53.7063 25.6688 53.7313C23.325 53.4125 21.0375 52.7875 18.8563 51.875C19.0063 51.9375 19.1563 52 19.3063 52.0625C18.05 51.5312 16.8375 50.9063 15.675 50.1938C15.1063 49.8438 14.5438 49.4688 14 49.0813C13.8688 48.9875 13.7375 48.8875 13.6063 48.7875C13.5438 48.7375 13.475 48.6875 13.4125 48.6375C13.1438 48.4375 13.7938 48.9375 13.5313 48.7313C13.25 48.5125 12.975 48.2875 12.7063 48.0563C11.6875 47.1938 10.7313 46.25 9.85625 45.2438C9.65625 45.0188 9.4625 44.7875 9.275 44.5563C9.16875 44.4313 9.06875 44.3 8.96875 44.175C8.88125 44.0688 8.6875 43.8 9.0625 44.2938C8.99375 44.2063 8.93125 44.1187 8.8625 44.0312C8.45 43.4812 8.0625 42.9187 7.69375 42.3438C6.88125 41.0688 6.175 39.725 5.5875 38.325C5.65 38.475 5.7125 38.625 5.775 38.775C4.8625 36.5938 4.2375 34.3062 3.91875 31.9625C3.94375 32.1312 3.9625 32.2938 3.9875 32.4625C3.6625 30.0438 3.6625 27.5937 3.9875 25.175C3.9625 25.3437 3.94375 25.5062 3.91875 25.675C4.2375 23.3312 4.8625 21.0437 5.775 18.8625C5.7125 19.0125 5.65 19.1625 5.5875 19.3125C6.11875 18.0562 6.74375 16.8437 7.45625 15.6812C7.80625 15.1125 8.18125 14.55 8.56875 14.0063C8.6625 13.875 8.7625 13.7437 8.8625 13.6125C8.9125 13.55 8.9625 13.4812 9.0125 13.4187C9.2125 13.15 8.7125 13.8 8.91875 13.5375C9.1375 13.2563 9.3625 12.9812 9.59375 12.7125C10.4563 11.6937 11.4 10.7375 12.4063 9.8625C12.6313 9.6625 12.8625 9.46875 13.0938 9.28125C13.2188 9.175 13.35 9.075 13.475 8.975C13.5813 8.8875 13.85 8.69375 13.3563 9.06875C13.4438 9 13.5313 8.9375 13.6188 8.86875C14.1688 8.45625 14.7313 8.06875 15.3063 7.7C16.5813 6.8875 17.925 6.18125 19.325 5.59375C19.175 5.65625 19.025 5.71875 18.875 5.78125C21.0563 4.86875 23.3438 4.24375 25.6875 3.925C25.5188 3.95 25.3563 3.96875 25.1875 3.99375C26.3938 3.83125 27.6125 3.75 28.8313 3.75C28.2063 3.125 27.5813 2.5 26.9563 1.875C26.9563 2.6125 26.9563 3.35 26.9563 4.0875C26.9563 5.8625 26.9563 7.63125 26.9563 9.40625C26.9563 11.5625 26.9563 13.7188 26.9563 15.875C26.9563 17.7313 26.9563 19.5875 26.9563 21.4438C26.9563 22.3438 26.9375 23.25 26.9563 24.15C26.9563 24.1625 26.9563 24.175 26.9563 24.1875C26.9563 25.1687 27.8188 26.1062 28.8313 26.0625C29.85 26.0188 30.7063 25.2375 30.7063 24.1875C30.7063 23.45 30.7063 22.7125 30.7063 21.975C30.7063 20.2 30.7063 18.4312 30.7063 16.6562C30.7063 14.5 30.7063 12.3438 30.7063 10.1875C30.7063 8.33125 30.7063 6.475 30.7063 4.61875C30.7063 3.71875 30.725 2.8125 30.7063 1.9125C30.7063 1.9 30.7063 1.8875 30.7063 1.875C30.7063 0.8625 29.85 0 28.8313 0C23.7875 0.00625 18.7688 1.3375 14.4 3.86875C10.2 6.3 6.63125 9.81875 4.125 13.975C1.525 18.275 0.106253 23.25 0.00625336 28.2625C-0.0999966 33.3062 1.15 38.35 3.58125 42.7625C5.925 47.0188 9.38125 50.6438 13.4813 53.2375C17.725 55.925 22.675 57.425 27.6875 57.6375C32.725 57.85 37.7875 56.6875 42.25 54.35C46.5563 52.0938 50.2375 48.7063 52.925 44.6625C55.7 40.4813 57.2813 35.5812 57.6 30.5875C57.975 24.7062 56.475 18.7062 53.3688 13.7C52.5875 12.4375 51.6938 11.2438 50.7375 10.1063C50.4438 9.75625 49.85 9.55625 49.4125 9.55625C48.95 9.55625 48.4063 9.7625 48.0875 10.1063C47.35 10.9125 47.4063 11.9625 48.0813 12.7625Z" fill="#F6F6F6"/>
<path d="M39.9312 19.6562C40.0562 19.8062 40.175 19.9687 40.3062 20.1125C39.9375 19.6937 40.1687 19.9375 40.2562 20.0437C40.3125 20.125 40.375 20.2 40.4312 20.2812C40.675 20.6187 40.9 20.9625 41.1125 21.3125C41.5375 22.0062 41.9062 22.7312 42.225 23.4812C42.1625 23.3312 42.1 23.1812 42.0375 23.0312C42.5875 24.3437 42.9625 25.725 43.1562 27.1375C43.1312 26.9687 43.1125 26.8062 43.0875 26.6375C43.275 28.0875 43.2812 29.55 43.0937 31C43.1187 30.8312 43.1375 30.6687 43.1625 30.5C42.9687 31.9187 42.5937 33.3062 42.0437 34.6312C42.1062 34.4812 42.1687 34.3312 42.2312 34.1812C41.9125 34.9312 41.55 35.65 41.125 36.3437C40.9125 36.6937 40.6875 37.0375 40.4437 37.3687C40.3875 37.4437 40.3312 37.525 40.275 37.6C40.2562 37.625 40.2 37.7187 40.175 37.7312C40.1437 37.7437 40.4562 37.375 40.3437 37.5125C40.2125 37.6687 40.0875 37.8312 39.9562 37.9875C39.4312 38.6125 38.8562 39.2 38.2437 39.7375C38.1 39.8625 37.9562 39.9875 37.8062 40.1062C37.7312 40.1687 37.6562 40.225 37.5812 40.2875C37.2937 40.5187 37.9375 40.025 37.6375 40.2437C37.3062 40.4875 36.975 40.725 36.625 40.9437C35.85 41.4375 35.0312 41.8625 34.1812 42.225C34.3312 42.1625 34.4812 42.1 34.6312 42.0375C33.3062 42.5875 31.9187 42.9625 30.5 43.1562C30.6687 43.1312 30.8312 43.1125 31 43.0875C29.5625 43.275 28.1062 43.275 26.6687 43.0875C26.8375 43.1125 27 43.1312 27.1687 43.1562C25.75 42.9625 24.3625 42.5875 23.0375 42.0375C23.1875 42.1 23.3375 42.1625 23.4875 42.225C22.7375 41.9062 22.0187 41.5437 21.325 41.1187C20.975 40.9062 20.6312 40.6812 20.3 40.4375C20.225 40.3812 20.1437 40.325 20.0687 40.2687C20.0437 40.25 19.95 40.1937 19.9375 40.1687C19.925 40.1375 20.2937 40.45 20.1562 40.3375C20 40.2062 19.8375 40.0812 19.6812 39.95C19.0562 39.425 18.4687 38.85 17.9312 38.2375C17.8062 38.0937 17.6812 37.95 17.5625 37.8C17.5 37.725 17.4437 37.65 17.3812 37.575C17.15 37.2875 17.6437 37.9312 17.425 37.6312C17.1812 37.3 16.9437 36.9687 16.725 36.6187C16.2312 35.8437 15.8062 35.025 15.4437 34.175C15.5062 34.325 15.5687 34.475 15.6312 34.625C15.0812 33.3 14.7062 31.9125 14.5125 30.4937C14.5375 30.6625 14.5562 30.825 14.5812 30.9937C14.3937 29.5562 14.3937 28.1 14.5812 26.6625C14.5562 26.8312 14.5375 26.9937 14.5125 27.1625C14.7062 25.7437 15.0812 24.3562 15.6312 23.0312C15.5687 23.1812 15.5062 23.3312 15.4437 23.4812C15.7625 22.7312 16.125 22.0125 16.55 21.3187C16.7625 20.9687 16.9875 20.625 17.2312 20.2937C17.2875 20.2187 17.3437 20.1375 17.4 20.0625C17.4187 20.0375 17.475 19.9437 17.5 19.9312C17.5312 19.9187 17.2187 20.2875 17.3312 20.15C17.4625 19.9937 17.5875 19.8312 17.7187 19.675C18.2437 19.05 18.8187 18.4625 19.4312 17.925C19.575 17.8 19.7187 17.675 19.8687 17.5562C19.9437 17.4937 20.0187 17.4375 20.0937 17.375C20.3812 17.1437 19.7375 17.6375 20.0375 17.4187C20.3687 17.175 20.7 16.9375 21.05 16.7187C21.825 16.225 22.6437 15.8 23.4937 15.4375C23.3437 15.5 23.1937 15.5625 23.0437 15.625C24.3687 15.075 25.7562 14.7 27.175 14.5062C27.0062 14.5312 26.8437 14.55 26.675 14.575C27.3937 14.4812 28.1187 14.4312 28.8437 14.4312C28.2187 13.8062 27.5937 13.1812 26.9687 12.5562C26.9687 13.8625 26.9687 15.1687 26.9687 16.475C26.9687 18.5687 26.9687 20.6687 26.9687 22.7625C26.9687 23.2437 26.9687 23.7187 26.9687 24.2C26.9687 25.1812 27.8312 26.1187 28.8437 26.075C29.8625 26.0312 30.7187 25.25 30.7187 24.2C30.7187 22.8937 30.7187 21.5875 30.7187 20.2812C30.7187 18.1875 30.7187 16.0875 30.7187 13.9937C30.7187 13.5125 30.7187 13.0375 30.7187 12.5562C30.7187 11.5437 29.8625 10.6812 28.8437 10.6812C25.6812 10.6875 22.5312 11.5187 19.7875 13.1C17.125 14.6312 14.8562 16.8687 13.275 19.5C11.6437 22.2 10.7625 25.3375 10.6937 28.4875C10.625 31.6687 11.425 34.8625 12.9625 37.6437C14.4437 40.325 16.6375 42.6062 19.2187 44.2375C21.8812 45.9187 24.9937 46.8437 28.1375 46.9812C31.325 47.1187 34.5312 46.3625 37.3562 44.875C40.0687 43.45 42.375 41.2875 44.0625 38.7375C45.7937 36.1125 46.7625 33.025 46.9625 29.8937C47.1937 26.2125 46.2375 22.4312 44.2875 19.3062C43.7875 18.5 43.2125 17.7375 42.6 17.0125C42.3062 16.6625 41.7125 16.4625 41.275 16.4625C40.8125 16.4625 40.2687 16.6687 39.95 17.0125C39.1937 17.8062 39.2562 18.85 39.9312 19.6562Z" fill="#F6F6F6"/>
<path d="M31.5813 28.8375C31.5813 29.0438 31.5688 29.2438 31.5438 29.4438C31.5688 29.275 31.5875 29.1125 31.6125 28.9438C31.5563 29.3625 31.4438 29.7688 31.2813 30.1563C31.3438 30.0063 31.4063 29.8563 31.4688 29.7063C31.3563 29.9563 31.2313 30.2 31.0813 30.4313C31.0688 30.4438 30.9563 30.6313 30.9375 30.6313C30.9313 30.6313 31.25 30.25 31.0813 30.4438C30.9813 30.5563 30.8875 30.6688 30.7813 30.775C30.6875 30.8688 30.5813 30.9625 30.4813 31.05C30.3688 31.15 30.175 31.2188 30.6375 30.9313C30.5813 30.9688 30.525 31.0125 30.4688 31.05C30.2313 31.2125 29.975 31.35 29.7125 31.4625C29.8625 31.4 30.0125 31.3375 30.1625 31.275C29.7688 31.4375 29.3688 31.55 28.95 31.6063C29.1188 31.5813 29.2813 31.5625 29.45 31.5375C29.0438 31.5875 28.6438 31.5875 28.2375 31.5375C28.4063 31.5625 28.5688 31.5813 28.7375 31.6063C28.3188 31.55 27.9125 31.4375 27.525 31.275C27.675 31.3375 27.825 31.4 27.975 31.4625C27.725 31.35 27.4813 31.225 27.25 31.075C27.2375 31.0625 27.05 30.95 27.05 30.9313C27.05 30.925 27.4313 31.2438 27.2375 31.075C27.125 30.975 27.0125 30.8813 26.9063 30.775C26.8125 30.6813 26.7188 30.575 26.6313 30.475C26.5313 30.3625 26.4625 30.1688 26.75 30.6313C26.7125 30.575 26.6688 30.5188 26.6313 30.4625C26.4688 30.225 26.3313 29.9688 26.2188 29.7063C26.2813 29.8563 26.3438 30.0063 26.4063 30.1563C26.2438 29.7625 26.1313 29.3625 26.075 28.9438C26.1 29.1125 26.1188 29.275 26.1438 29.4438C26.0938 29.0375 26.0938 28.6375 26.1438 28.2313C26.1188 28.4 26.1 28.5625 26.075 28.7313C26.1313 28.3125 26.2438 27.9063 26.4063 27.5188C26.3438 27.6688 26.2813 27.8188 26.2188 27.9688C26.3313 27.7188 26.4563 27.475 26.6063 27.2438C26.6188 27.2313 26.7313 27.0438 26.75 27.0438C26.7563 27.0438 26.4375 27.425 26.6063 27.2313C26.7063 27.1188 26.8 27.0063 26.9063 26.9C27 26.8063 27.1063 26.7125 27.2063 26.625C27.3188 26.525 27.5125 26.4563 27.05 26.7438C27.1063 26.7063 27.1625 26.6625 27.2188 26.625C27.4563 26.4625 27.7125 26.325 27.975 26.2125C27.825 26.275 27.675 26.3375 27.525 26.4C27.9188 26.2375 28.3188 26.125 28.7375 26.0688C28.5688 26.0938 28.4063 26.1125 28.2375 26.1375C28.6375 26.0875 29.0375 26.0875 29.4438 26.1375C29.275 26.1125 29.1125 26.0938 28.9438 26.0688C29.3625 26.125 29.7625 26.2375 30.1563 26.4C30.0063 26.3375 29.8563 26.275 29.7063 26.2125C29.95 26.3188 30.1875 26.4438 30.4188 26.5875C30.4875 26.6313 30.55 26.675 30.6125 26.7188C30.8375 26.8688 30.45 26.6188 30.4563 26.6C30.45 26.6188 30.75 26.8625 30.7688 26.8813C30.8563 26.9688 30.9438 27.0625 31.025 27.1563C31.1188 27.2625 31.2188 27.4688 30.95 27.0438C30.9875 27.1 31.025 27.15 31.0625 27.2063C31.2313 27.4563 31.3688 27.7188 31.4938 27.9938C31.4313 27.8438 31.3688 27.6938 31.3063 27.5438C31.4625 27.925 31.5688 28.3125 31.6313 28.7188C31.6063 28.55 31.5875 28.3875 31.5625 28.2188C31.5625 28.4188 31.5813 28.625 31.5813 28.8375C31.5938 29.8188 32.4375 30.7563 33.4563 30.7125C34.4625 30.6688 35.3438 29.8875 35.3313 28.8375C35.3 25.8688 33.1875 23.0563 30.2125 22.4813C28.7438 22.2 27.3375 22.3688 25.9813 22.9875C24.875 23.4938 23.9438 24.3875 23.2938 25.4063C21.95 27.5188 21.9938 30.4938 23.4813 32.525C24.3125 33.6563 25.35 34.4563 26.6625 34.9625C27.8438 35.4188 29.2188 35.4375 30.4375 35.1375C33.3 34.4313 35.3125 31.75 35.3375 28.8313C35.3438 27.85 34.4688 26.9125 33.4625 26.9563C32.4313 27.0063 31.5938 27.7875 31.5813 28.8375Z" fill="#F6F6F6"/>
</svg>
