<svg width="45" height="46" viewBox="0 0 45 46" fill="#838e9e" xmlns="http://www.w3.org/2000/svg">
<path d="M27.0381 18.5208C27.0381 18.5208 27.0381 0.759261 27.0381 0.58194C38.504 0.58194 44.9769 7.2499 44.9769 18.5208C44.9769 18.5843 27.0381 18.5208 27.0381 18.5208ZM42.7346 25.2478C42.7346 36.9697 33.6491 45.418 21.7235 45.418C9.79785 45.418 0.129883 35.9165 0.129883 24.1945C0.129883 12.4725 8.38542 2.8243 20.311 2.8243C20.8716 2.8243 22.0037 2.78269 22.5534 2.8243V23.0054H42.7345C42.8178 23.7566 42.7346 24.4749 42.7346 25.2478ZM40.4922 25.2478H20.3111V5.06665C9.30295 5.06665 1.78974 13.3748 1.78974 24.1946C1.78974 35.0143 10.7154 43.7867 21.7235 43.7867C32.7316 43.7867 40.4922 36.0676 40.4922 25.2478C40.4922 23.1412 40.4922 25.2478 40.4922 25.2478Z"/>
</svg>