<svg width="99" height="99" viewBox="0 0 99 99" fill="none" xmlns="http://www.w3.org/2000/svg">
<path d="M40 0L99 59V99L0 0H40Z" fill="#1C74BB"/>
<path d="M28.6279 12.2557C28.1697 12.4933 27.3636 12.7903 26.532 11.9588C25.4035 10.8302 26.0993 9.43863 27.0836 8.45434C28.1527 7.38519 29.4934 6.84213 30.5371 7.88582C31.3347 8.68344 31.1989 9.44712 30.868 10.0326L32.1323 11.2969C32.9723 10.1684 33.1251 8.50525 31.5638 6.94396C29.68 5.06022 27.3381 5.58631 25.7344 7.19003C24.0713 8.85315 23.63 11.0423 25.4883 12.9006C26.9563 14.3686 28.577 14.394 29.9007 13.5285L28.6279 12.2557ZM37.6894 13.0696C35.8736 11.2538 33.5062 11.4998 31.8091 13.1969C30.129 14.877 29.7557 17.168 31.597 19.0093C33.4977 20.91 35.8736 20.4857 37.5027 18.8566C39.2931 17.0662 39.4035 14.7836 37.6894 13.0696ZM36.6118 14.0454C37.6979 15.1315 37.2906 16.4552 36.179 17.5668C35.1354 18.6105 33.7947 19.1535 32.6661 18.025C31.6309 16.9898 31.9958 15.6237 33.1413 14.4782C34.2783 13.3411 35.5511 12.9847 36.6118 14.0454ZM40.563 27.8056L41.7848 29.0274L47.6312 23.1811L45.8153 21.3652C43.8298 22.3665 41.14 23.7835 40.232 24.403L40.2235 24.3945C40.9109 23.3508 42.3194 20.924 43.3886 18.9384L41.5048 17.0547L35.6585 22.9011L36.8125 24.0551L38.9083 21.9592C39.9096 20.9579 41.089 19.7276 41.7254 18.9893L41.7679 19.0318C40.8515 20.4573 39.2392 23.2744 38.0683 25.3109L39.1459 26.3885C41.5388 25.1157 44.0674 23.7581 45.5353 22.8332L45.5778 22.8756C44.8904 23.512 43.7534 24.6151 42.7606 25.6079L40.563 27.8056ZM49.0206 24.5705L43.1742 30.4168L44.4385 31.6811L50.2849 25.8348L49.0206 24.5705ZM46.9882 34.2308L48.7701 32.4489C49.8138 31.4052 51.0017 30.1833 51.4684 29.6317L51.4854 29.6487C51.1035 30.6245 49.8816 34.8332 49.364 36.6066L50.849 38.0916L56.6953 32.2452L55.5498 31.0997L53.8188 32.8307C52.86 33.7895 51.8417 34.8078 51.2987 35.4866L51.2817 35.4696C51.6466 34.5617 52.6733 30.8367 53.2503 28.8002L51.6805 27.2304L45.8342 33.0768L46.9882 34.2308ZM60.6061 41.298L58.0859 38.7779L57.0507 39.8131L58.332 41.0944L58.2726 41.1538C57.755 41.6714 56.7962 42.2229 55.7185 41.1453C54.556 39.9828 55.1585 38.5997 56.1682 37.5899C57.195 36.5632 58.5441 35.8929 59.749 37.0978C60.6061 37.9548 60.4448 38.727 60.1733 39.2361L61.4376 40.5004C62.2946 39.3719 62.2522 37.6324 60.7503 36.1305C58.909 34.2892 56.5586 34.5862 54.8021 36.3426C53.139 38.0057 52.7996 40.2458 54.4966 41.9429C55.3112 42.7575 56.1173 43.0884 56.881 42.9696C56.7028 43.1817 56.5331 43.4193 56.4058 43.6484L57.3307 44.5733L60.6061 41.298ZM61.9651 45.7796C61.0317 46.9845 61.0911 48.5034 62.576 49.9883C64.1204 51.5327 65.6647 51.6005 66.7253 50.5399C67.5569 49.7083 67.8114 48.7071 66.5217 46.6027C65.7835 45.4402 65.7071 45.0244 66.1144 44.6172C66.5302 44.2014 67.0478 44.2947 67.5654 44.8123C68.3206 45.5675 68.1254 46.153 67.8284 46.5857L69.1012 47.8585C69.8734 46.9167 70.0855 45.4657 68.5327 43.9129C67.1496 42.5298 65.6986 42.4534 64.6804 43.4716C63.8912 44.2608 63.6961 45.2366 64.918 47.2052C65.6901 48.4355 65.7665 48.9192 65.2828 49.4029C64.8586 49.8271 64.2985 49.8101 63.6197 49.1313C62.9409 48.4525 62.7882 47.7737 63.2379 47.0524L61.9651 45.7796ZM74.5391 49.9193C72.7232 48.1034 70.3558 48.3495 68.6588 50.0465C66.9787 51.7266 66.6053 54.0177 68.4467 55.859C70.3474 57.7597 72.7232 57.3354 74.3524 55.7062C76.1428 53.9158 76.2531 51.6333 74.5391 49.9193ZM73.4615 50.8951C74.5476 51.9812 74.1403 53.3049 73.0287 54.4165C71.985 55.4601 70.6443 56.0032 69.5158 54.8747C68.4806 53.8395 68.8455 52.4733 69.991 51.3278C71.128 50.1908 72.4008 49.8344 73.4615 50.8951ZM81.0273 56.4075C79.2115 54.5917 76.8441 54.8377 75.147 56.5348C73.467 58.2149 73.0936 60.5059 74.9349 62.3472C76.8356 64.2479 79.2115 63.8237 80.8407 62.1945C82.6311 60.4041 82.7414 58.1215 81.0273 56.4075ZM79.9497 57.3833C81.0358 58.4694 80.6285 59.7931 79.517 60.9047C78.4733 61.9484 77.1326 62.4915 76.0041 61.3629C74.9688 60.3277 75.3337 58.9616 76.4792 57.8161C77.6163 56.679 78.889 56.3227 79.9497 57.3833ZM80.1504 67.393L81.9323 65.6111C82.976 64.5674 84.1639 63.3455 84.6306 62.794L84.6476 62.8109C84.2657 63.7867 83.0439 67.9954 82.5263 69.7689L84.0112 71.2538L89.8575 65.4074L88.712 64.2619L86.981 65.9929C86.0222 66.9517 85.004 67.97 84.4609 68.6488L84.4439 68.6318C84.8088 67.7239 85.8355 63.9989 86.4125 61.9624L84.8427 60.3926L78.9964 66.239L80.1504 67.393ZM88.9147 71.9146L91.7742 69.3606L92.7924 68.3423L91.5027 67.0526L90.4929 68.0623L87.9389 70.9388L88.9147 71.9146ZM86.8867 74.1293L88.2952 72.7207L87.0988 71.5243L85.6903 72.9329L86.8867 74.1293Z" fill="white"/>
</svg>
 