 <svg width="40" height="50" viewBox="0 0 40 50" fill="none" xmlns="http://www.w3.org/2000/svg">
<path d="M39.9658 37.3767C39.9749 29.239 39.9791 21.1012 39.9658 12.966C39.9599 8.61084 36.7859 5.44602 32.419 5.43934L31.0188 5.4385V8.11681L31.0531 8.51387L31.451 8.50635C32.2903 8.49046 33.1396 8.45536 34.0039 8.75044C35.7886 9.36066 36.8553 10.9289 36.8561 12.9443L36.8569 27.5621L36.8561 34.8706C36.8561 35.6422 36.8519 36.4146 36.8461 37.1861C36.8344 38.9257 36.8235 40.7254 36.8712 42.4967C36.9021 43.6612 36.4741 44.7596 35.6666 45.5897C34.8231 46.4557 33.6687 46.933 32.3881 46.933C28.7418 46.9121 25.0955 46.9063 21.45 46.9063L7.54104 46.9171C4.91038 46.9171 3.07301 45.0848 3.07218 42.4625C3.068 32.8309 3.06633 23.2002 3.08304 13.5695C3.08388 12.8515 3.10311 12.0975 3.31292 11.4563C3.87216 9.75188 5.03995 8.78555 6.78452 8.58576C7.27019 8.52892 7.89714 8.52975 8.5525 8.55065L8.95459 8.56235V5.43683L7.2401 5.44686C6.70093 5.45104 6.18684 5.50872 5.71203 5.61906C2.29727 6.41319 0.0026585 9.30884 0.0026585 12.8256L0.000985969 31.1206C-0.000685882 34.9784 -0.00235757 38.8354 0.0151969 42.6932C0.0185406 43.3385 0.118016 44.0315 0.311951 44.7537C0.988215 47.2808 3.48178 50 7.36131 50L7.49422 49.9992C9.40348 49.9666 11.3136 49.9733 13.2237 49.9825C14.0562 49.9858 14.8888 49.9883 15.7206 49.9883L17.2461 49.9875L24.7176 49.9925C27.508 49.9925 30.2983 49.9866 33.0886 49.9599C36.5326 49.9281 39.6406 46.994 39.873 43.5534C39.9825 41.9258 39.9758 40.2698 39.9683 38.6682L39.9658 37.3767Z" fill="white"/>
<path d="M29.4448 8.19202C29.4372 8.9502 29.1162 9.27872 28.3581 9.27872H11.6471C10.7167 9.27872 10.4358 8.98949 10.4358 8.0357C10.4283 7.2934 10.4283 6.22258 10.4358 5.47944C10.4433 4.82324 10.7794 4.50225 11.4364 4.47132C12.1403 4.44791 12.8592 4.4872 13.5471 4.35429C14.7433 4.11187 15.6813 3.4239 16.2982 2.34556C16.5088 1.97859 16.7044 1.60326 16.9234 1.23545C17.3999 0.430452 18.1113 0.024192 19.0417 0.00830941C19.5808 -0.00757318 20.12 0.0158329 20.66 0.000786224C21.7543 -0.0226197 22.52 0.477264 23.0675 1.40765C23.4821 2.10314 23.9043 2.83039 24.4668 3.39297C25.342 4.26066 26.4756 4.52649 27.7027 4.4872C29.3445 4.44039 29.4456 4.5733 29.4456 6.19081C29.4448 6.75423 29.4531 7.6378 29.4448 8.19202Z" fill="white"/>
<path d="M8.80762 14.8585C8.80762 15.4161 8.80762 15.9511 8.80762 16.5162C11.5375 16.5162 14.2552 16.5162 17 16.5162C17 15.977 17 15.4311 17 14.8585C14.2811 14.8585 11.5634 14.8585 8.80762 14.8585Z" fill="white"/>
<path d="M31.1677 16.5168C31.1677 15.9551 31.1677 15.4192 31.1677 14.8575C27.9436 14.8575 23.2507 14.8575 20 14.8575C20 15.3975 20 15.9425 20 16.5168C23.2068 16.5168 27.8997 16.5168 31.1677 16.5168Z" fill="white"/>
<path d="M31.1676 19.6976C31.1676 20.2552 31.1676 20.7902 31.1676 21.3553C27.4462 21.3553 23.7416 21.3553 20 21.3553C20 20.8161 20 20.2702 20 19.6976C23.7055 19.6976 27.4101 19.6976 31.1676 19.6976Z" fill="white"/>
<path d="M8.80762 21.3569C8.80762 20.7951 8.80762 20.2593 8.80762 19.6976C11.1398 19.6976 14.5345 19.6976 16.886 19.6976C16.886 20.2376 16.886 20.7826 16.886 21.3569C14.5655 21.3569 11.1708 21.3569 8.80762 21.3569Z" fill="white"/>
<path d="M8.80762 24.8585C8.80762 25.4161 8.80762 25.9511 8.80762 26.5162C11.5375 26.5162 14.2552 26.5162 17 26.5162C17 25.977 17 25.4311 17 24.8585C14.2811 24.8585 11.5634 24.8585 8.80762 24.8585Z" fill="white"/>
<path d="M31.1677 26.5168C31.1677 25.9551 31.1677 25.4192 31.1677 24.8575C27.9436 24.8575 23.2507 24.8575 20 24.8575C20 25.3975 20 25.9425 20 26.5168C23.2068 26.5168 27.8997 26.5168 31.1677 26.5168Z" fill="white"/>
<path d="M31.1676 29.6976C31.1676 30.2552 31.1676 30.7902 31.1676 31.3553C27.4462 31.3553 23.7416 31.3553 20 31.3553C20 30.8161 20 30.2702 20 29.6976C23.7055 29.6976 27.4101 29.6976 31.1676 29.6976Z" fill="white"/>
<path d="M8.80762 31.3569C8.80762 30.7951 8.80762 30.2593 8.80762 29.6976C11.1398 29.6976 14.5345 29.6976 16.886 29.6976C16.886 30.2376 16.886 30.7826 16.886 31.3569C14.5655 31.3569 11.1708 31.3569 8.80762 31.3569Z" fill="white"/>
<path d="M8.80762 34.8585C8.80762 35.4161 8.80762 35.9511 8.80762 36.5162C11.5375 36.5162 14.2552 36.5162 17 36.5162C17 35.977 17 35.4311 17 34.8585C14.2811 34.8585 11.5634 34.8585 8.80762 34.8585Z" fill="white"/>
<path d="M31.1677 36.5168C31.1677 35.9551 31.1677 35.4192 31.1677 34.8575C27.9436 34.8575 23.2507 34.8575 20 34.8575C20 35.3975 20 35.9425 20 36.5168C23.2068 36.5168 27.8997 36.5168 31.1677 36.5168Z" fill="white"/>
<path d="M31.1676 39.6976C31.1676 40.2552 31.1676 40.7902 31.1676 41.3553C27.4462 41.3553 23.7416 41.3553 20 41.3553C20 40.8161 20 40.2702 20 39.6976C23.7055 39.6976 27.4101 39.6976 31.1676 39.6976Z" fill="white"/>
<path d="M8.80762 41.3569C8.80762 40.7951 8.80762 40.2593 8.80762 39.6976C11.1398 39.6976 14.5345 39.6976 16.886 39.6976C16.886 40.2376 16.886 40.7826 16.886 41.3569C14.5655 41.3569 11.1708 41.3569 8.80762 41.3569Z" fill="white"/>
</svg>
