<svg width="40" height="50" viewBox="0 0 40 50" fill="#838e9e" xmlns="http://www.w3.org/2000/svg">
<path d="M39.9658 37.3767C39.9749 29.2389 39.9791 21.1012 39.9658 12.966C39.9599 8.61081 36.7859 5.44599 32.419 5.43931L31.0188 5.43847V8.11678L31.0531 8.51384L31.451 8.50632C32.2903 8.49043 33.1396 8.45532 34.0039 8.75041C35.7886 9.36063 36.8553 10.9288 36.8561 12.9442L36.8569 27.5621L36.8561 34.8706C36.8561 35.6421 36.8519 36.4145 36.8461 37.1861C36.8344 38.9256 36.8235 40.7254 36.8712 42.4967C36.9021 43.6612 36.4741 44.7596 35.6666 45.5896C34.8231 46.4557 33.6687 46.933 32.3881 46.933C28.7418 46.9121 25.0955 46.9062 21.45 46.9062L7.54104 46.9171C4.91038 46.9171 3.07301 45.0847 3.07218 42.4624C3.068 32.8309 3.06633 23.2002 3.08304 13.5695C3.08388 12.8515 3.10311 12.0975 3.31292 11.4563C3.87216 9.75185 5.03995 8.78552 6.78452 8.58573C7.27019 8.52889 7.89714 8.52972 8.5525 8.55062L8.95459 8.56232V5.4368L7.2401 5.44683C6.70093 5.45101 6.18684 5.50869 5.71203 5.61903C2.29727 6.41316 0.0026585 9.30881 0.0026585 12.8255L0.000985969 31.1206C-0.000685882 34.9784 -0.00235757 38.8354 0.0151969 42.6932C0.0185406 43.3385 0.118016 44.0315 0.311951 44.7537C0.988215 47.2807 3.48178 50 7.36131 50L7.49422 49.9991C9.40348 49.9665 11.3136 49.9732 13.2237 49.9824C14.0562 49.9858 14.8888 49.9883 15.7206 49.9883L17.2461 49.9874L24.7176 49.9925C27.508 49.9925 30.2983 49.9866 33.0886 49.9599C36.5326 49.9281 39.6406 46.994 39.873 43.5533C39.9825 41.9258 39.9758 40.2698 39.9683 38.6682L39.9658 37.3767Z"/>
<path d="M29.4448 8.19202C29.4372 8.9502 29.1162 9.27872 28.3581 9.27872H11.6471C10.7167 9.27872 10.4358 8.98949 10.4358 8.0357C10.4283 7.2934 10.4283 6.22258 10.4358 5.47944C10.4433 4.82324 10.7794 4.50225 11.4364 4.47132C12.1403 4.44791 12.8592 4.4872 13.5471 4.35429C14.7433 4.11187 15.6813 3.4239 16.2982 2.34556C16.5088 1.97859 16.7044 1.60326 16.9234 1.23545C17.3999 0.430452 18.1113 0.024192 19.0417 0.00830941C19.5808 -0.00757318 20.12 0.0158329 20.66 0.000786224C21.7543 -0.0226197 22.52 0.477264 23.0675 1.40765C23.4821 2.10314 23.9043 2.83039 24.4668 3.39297C25.342 4.26066 26.4756 4.52649 27.7027 4.4872C29.3445 4.44039 29.4456 4.5733 29.4456 6.19081C29.4448 6.75423 29.4531 7.6378 29.4448 8.19202Z" />
<path d="M22.883 20.435L28.0364 17.0436C24.9795 13.0421 19.4791 11.83 15.0361 14.1296L18.4534 19.3224C20.0065 18.8033 21.7461 19.2279 22.883 20.435Z" />
<path d="M25.5011 32.0218C26.1874 31.5704 26.8035 31.0504 27.3443 30.4778L22.3346 26.7554C22.2694 26.8064 22.2009 26.8541 22.1306 26.9C20.1712 28.1899 17.5372 27.6457 16.2491 25.6871C15.0646 23.8865 15.4248 21.5175 17.0123 20.1441L13.6301 15.0048C9.22144 18.2549 8.07956 24.4265 11.1265 29.0576C14.2771 33.8457 20.7129 35.1724 25.5011 32.0218Z" />
<path d="M28.3817 29.1864C30.5083 26.0567 30.8093 21.9055 28.9351 18.4347L23.7632 21.8377C24.2322 23.0615 24.1001 24.4216 23.4473 25.5192L28.3817 29.1864ZM25.0004 22.2992L28.4887 20.0037C29.4534 22.4889 29.3021 25.2592 28.0724 27.6307L24.7806 25.1848C25.1158 24.2636 25.1935 23.2588 25.0004 22.2992Z" />
<path d="M8.80762 36.8585C8.80762 37.4161 8.80762 37.9511 8.80762 38.5162C12.3336 38.5162 15.8436 38.5162 19.3888 38.5162C19.3888 37.977 19.3888 37.4311 19.3888 36.8585C15.877 36.8585 12.367 36.8585 8.80762 36.8585Z" />
<path d="M31.1677 38.5168C31.1677 37.9551 31.1677 37.4192 31.1677 36.8575C28.8355 36.8575 25.4408 36.8575 23.0894 36.8575C23.0894 37.3975 23.0894 37.9425 23.0894 38.5168C25.409 38.5168 28.8037 38.5168 31.1677 38.5168Z" />
<path d="M31.1676 41.6976C31.1676 42.2551 31.1676 42.7901 31.1676 43.3552C27.6416 43.3552 24.1316 43.3552 20.5864 43.3552C20.5864 42.816 20.5864 42.2702 20.5864 41.6976C24.0973 41.6976 27.6074 41.6976 31.1676 41.6976Z" />
<path d="M8.80762 43.3569C8.80762 42.7951 8.80762 42.2593 8.80762 41.6976C11.1398 41.6976 14.5345 41.6976 16.886 41.6976C16.886 42.2376 16.886 42.7826 16.886 43.3569C14.5655 43.3569 11.1708 43.3569 8.80762 43.3569Z" />
</svg>
