<svg width="40" height="40" viewBox="0 0 40 40" fill="none" xmlns="http://www.w3.org/2000/svg">
<path d="M20 12.7273C21.9288 12.7273 23.7787 13.4935 25.1426 14.8574C26.5065 16.2213 27.2727 18.0712 27.2727 20C27.2727 21.9288 26.5065 23.7787 25.1426 25.1426C23.7787 26.5065 21.9288 27.2727 20 27.2727C18.0712 27.2727 16.2213 26.5065 14.8574 25.1426C13.4935 23.7787 12.7273 21.9288 12.7273 20C12.7273 18.0712 13.4935 16.2213 14.8574 14.8574C16.2213 13.4935 18.0712 12.7273 20 12.7273ZM3.72727 21.8182H0V18.1818H3.72727C4.54545 10.6 10.6 4.54545 18.1818 3.72727V0H21.8182V3.72727C29.4 4.54545 35.4545 10.6 36.2727 18.1818H40V21.8182H36.2727C35.4545 29.4 29.4 35.4545 21.8182 36.2727V40H18.1818V36.2727C10.6 35.4545 4.54545 29.4 3.72727 21.8182ZM20 7.27273C16.6245 7.27273 13.3873 8.61363 11.0005 11.0005C8.61363 13.3873 7.27273 16.6245 7.27273 20C7.27273 23.3755 8.61363 26.6127 11.0005 28.9995C13.3873 31.3864 16.6245 32.7273 20 32.7273C23.3755 32.7273 26.6127 31.3864 28.9995 28.9995C31.3864 26.6127 32.7273 23.3755 32.7273 20C32.7273 16.6245 31.3864 13.3873 28.9995 11.0005C26.6127 8.61363 23.3755 7.27273 20 7.27273Z" fill="white"/>
</svg>
