<svg width="44" height="35" viewBox="0 0 44 35" fill="none" xmlns="http://www.w3.org/2000/svg">
<path d="M42.7576 10.287H38.6492C38.451 10.287 38.271 10.3443 38.1105 10.4343L36.2587 4.80063C35.6649 1.5961 33.4312 0.0511475 30.6847 0.0511475H13.2808C10.1286 0.0511475 8.21522 2.12649 7.70772 4.79743L5.84848 10.4512C5.67969 10.3508 5.48787 10.287 5.27961 10.287H1.16835C0.536928 10.287 0.0239258 10.8023 0.0239258 11.4419V12.4458C0.0239258 13.0832 0.536928 13.6003 1.1683 13.6003L2.72469 13.8696C2.23193 14.8396 1.95202 15.9473 1.95202 17.2375L1.37671 23.887C1.37671 24.0797 1.3914 24.2733 1.41528 24.4725C1.39325 24.5927 1.37671 24.7203 1.37671 24.8487V32.8454C1.37671 33.9843 2.29349 34.9065 3.42132 34.9065H6.53776C7.6647 34.9065 8.57868 33.9843 8.57868 32.8454V30.2759H35.3841V32.8454C35.3841 33.9842 36.2981 34.9065 37.426 34.9065H40.5433C41.6702 34.9065 42.5861 33.9842 42.5861 32.8454V24.8487C42.5861 24.7175 42.5704 24.5927 42.5493 24.4725C42.5704 24.2733 42.5861 24.0798 42.5861 23.887L42.0089 17.2375C42.0089 15.944 41.729 14.835 41.2344 13.8613L42.7577 13.6003C43.389 13.6003 43.9011 13.0832 43.9011 12.4458V11.4419C43.903 10.8023 43.389 10.287 42.7577 10.287H42.7576ZM9.08148 9.10226L10.4415 5.44714L10.4599 5.3618C10.5966 4.62355 10.8995 4.49139 11.3436 3.91967H32.6457C33.0963 4.50743 33.379 4.65697 33.5019 5.35305L34.883 9.10226L35.3895 11.1395C35.2749 12.6307 33.5019 13.8077 32.0245 13.8077H11.94C10.4625 13.8077 8.6887 12.6307 8.57213 11.1395L9.08148 9.10226ZM10.0341 26.4868C8.32625 26.4868 6.94238 25.0883 6.94238 23.363C6.94238 21.6387 8.3263 20.242 10.0341 20.242C11.7418 20.242 13.1267 21.6387 13.1267 23.363C13.1267 25.0883 11.7418 26.4868 10.0341 26.4868ZM27.3104 24.1825C27.3104 24.6964 26.8983 25.1112 26.3872 25.1112H17.7123C17.2039 25.1112 16.7919 24.6964 16.7919 24.1825V21.5727C16.7919 21.0606 17.2039 20.6467 17.7123 20.6467H26.3872C26.8984 20.6467 27.3104 21.0606 27.3104 21.5727V24.1825H27.3104ZM33.9295 26.4868C32.2217 26.4868 30.8351 25.0883 30.8351 23.363C30.8351 21.6387 32.2217 20.242 33.9295 20.242C35.6374 20.242 37.0221 21.6387 37.0221 23.363C37.0221 25.0883 35.6373 26.4868 33.9295 26.4868Z" fill="white"/>
</svg>
